<?xml version="1.0" encoding="UTF-8"?>
<svg version="1.1" xmlns="http://www.w3.org/2000/svg" width="512" height="512">
<path d="M0 0 C0.93054577 0.00026688 1.86109154 0.00053375 2.81983566 0.00080872 C31.32082093 0.01106212 59.74304851 0.22344627 88.1875 2.1875 C89.64866241 2.28578094 89.64866241 2.28578094 91.13934326 2.38604736 C115.42807408 4.02218025 139.66935368 6.09552789 163.875 8.6875 C165.25751953 8.83090317 165.25751953 8.83090317 166.66796875 8.97720337 C189.43485389 11.36389692 210.221104 15.44350318 225.59765625 34.00390625 C234.68311143 46.48245526 237.74681377 60.16366392 239.25 75.25 C239.41433819 76.8133276 239.57881119 78.37664103 239.7434082 79.93994141 C242.7573329 109.24011882 244.73863899 138.73473682 245.1875 168.1875 C245.19845703 168.86913208 245.20941406 169.55076416 245.22070312 170.25305176 C245.77865529 206.18968418 244.33105924 242.06969281 241.25 277.875 C241.17068237 278.80997314 241.09136475 279.74494629 241.00964355 280.70825195 C240.16258058 290.54604041 239.11959648 300.33667329 237.69921875 310.109375 C237.58304703 310.9262529 237.46687531 311.7431308 237.34718323 312.58476257 C235.00228475 327.96305776 226.79717918 341.64222996 214.60546875 351.21484375 C201.37749143 360.72411258 186.94942795 363.07328473 171.125 364.75 C169.296233 364.9548402 167.46753992 365.16034136 165.63891602 365.36645508 C134.34502235 368.8357896 102.90475433 371.60015478 71.44973755 373.08035278 C69.85005682 373.15611907 68.25051884 373.23492796 66.65109253 373.31588745 C45.18983296 374.38235775 23.73213786 374.38878314 2.25 374.375 C1.31759491 374.37473312 0.38518982 374.37446625 -0.57546997 374.37419128 C-27.47518059 374.36453141 -54.32217719 374.2850101 -81.16662598 372.37432861 C-84.06345584 372.16977968 -86.96085377 371.97491417 -89.85839844 371.78076172 C-113.51288823 370.18121182 -137.11880469 368.20288008 -160.6875 365.625 C-161.61576599 365.52512787 -162.54403198 365.42525574 -163.50042725 365.32235718 C-185.84166871 362.89422239 -207.54172395 359.50594685 -222.8125 341.1875 C-232.47957059 328.65461726 -235.46602939 314.34536935 -236.9375 298.9375 C-237.09689802 297.38780511 -237.25682536 295.83816459 -237.41723633 294.28857422 C-240.37214378 265.03249335 -242.36439392 235.59072745 -242.8125 206.1875 C-242.82345703 205.50586792 -242.83441406 204.82423584 -242.84570312 204.12194824 C-243.40365529 168.18531582 -241.95605924 132.30530719 -238.875 96.5 C-238.79568237 95.56502686 -238.71636475 94.63005371 -238.63464355 93.66674805 C-237.78758058 83.82895959 -236.74459648 74.03832671 -235.32421875 64.265625 C-235.20804703 63.4487471 -235.09187531 62.6318692 -234.97218323 61.79023743 C-232.62728475 46.41194224 -224.42217918 32.73277004 -212.23046875 23.16015625 C-199.00249143 13.65088742 -184.57442795 11.30171527 -168.75 9.625 C-166.921233 9.4201598 -165.09253992 9.21465864 -163.26391602 9.00854492 C-131.97020477 5.53923062 -100.53011847 2.77488003 -69.07528687 1.29464722 C-67.47475276 1.21885891 -65.8743603 1.14005108 -64.27407837 1.05911255 C-42.85493934 -0.00434641 -21.4399478 -0.01378277 0 0 Z M-55.8125 110.1875 C-59.40384513 115.74059146 -60.9297072 120.93408184 -60.95967102 127.52980042 C-60.96682632 128.61324234 -60.97398163 129.69668427 -60.98135376 130.81295776 C-60.98404266 131.99689117 -60.98673157 133.18082458 -60.98950195 134.40063477 C-60.99607315 135.65151382 -61.00264435 136.90239288 -61.00941467 138.19117737 C-61.02914865 142.33708944 -61.04081643 146.48296282 -61.05078125 150.62890625 C-61.05483097 152.06005306 -61.05894796 153.49119969 -61.06313133 154.92234612 C-61.08217778 161.65047874 -61.09640733 168.37860045 -61.1047433 175.10675484 C-61.11449997 182.85225345 -61.14078036 190.59746508 -61.18124419 198.34286267 C-61.21150129 204.34221869 -61.2262214 210.34149294 -61.22952431 216.34092373 C-61.23186479 219.91783235 -61.24069251 223.49443425 -61.26598549 227.07126045 C-61.29380872 231.07055531 -61.28940597 235.06921773 -61.2824707 239.06860352 C-61.29528076 240.23836731 -61.30809082 241.4081311 -61.32128906 242.61334229 C-61.26405813 251.70575652 -59.85742619 260.2005516 -53.5625 267.125 C-48.3581375 271.80219647 -41.76925465 275.2852042 -34.6875 275.4375 C-33.98367187 275.46328125 -33.27984375 275.4890625 -32.5546875 275.515625 C-24.09475962 274.50332594 -17.17323619 270.33473226 -10 266 C-7.8692805 264.73434463 -5.73773581 263.47007767 -3.60546875 262.20703125 C-2.49606934 261.54783691 -1.38666992 260.88864258 -0.24365234 260.20947266 C4.94582526 257.1513217 10.17925011 254.17169167 15.4156189 251.19491577 C25.67568964 245.3614786 35.89748959 239.4661379 46.07641602 233.49194336 C51.55554462 230.28287654 57.05766145 227.1202528 62.58984375 224.00390625 C63.85615519 223.28847411 65.12243135 222.57297951 66.38867188 221.85742188 C68.80881268 220.490116 71.23387582 219.132165 73.66210938 217.77929688 C84.81501218 211.48111091 93.54865555 205.95380708 98.5625 193.875 C99.90231591 185.97008613 98.84654257 179.3382759 94.9296875 172.35546875 C89.4138213 165.49155453 81.94718577 161.50342814 74.375 157.25 C72.63162455 156.25772306 70.88825558 155.26543448 69.14529419 154.27243042 C67.34602174 153.2485303 65.54497255 152.22781199 63.74365234 151.20751953 C58.20604116 148.06702365 52.69852119 144.8743389 47.1875 141.6875 C45.02097173 140.43726015 42.85430466 139.18726078 40.6875 137.9375 C27.6875 130.4375 27.6875 130.4375 24.43310547 128.55981445 C22.28126086 127.31846525 20.12924452 126.07741371 17.97705078 124.83666992 C12.93197938 121.92769997 7.88861579 119.01589477 2.85150146 116.09317017 C1.07069999 115.0600706 -0.71065858 114.02793829 -2.4921875 112.99609375 C-4.72507083 111.70243912 -6.9569091 110.40697836 -9.1875 109.109375 C-26.05240217 99.34661357 -40.89793734 93.48453955 -55.8125 110.1875 Z " fill="#4DA5FF" transform="translate(254.8125,68.8125)"/>
</svg>
